<?xml version="1.0" encoding="utf-8"?>
<!-- Generator: Adobe Illustrator 24.0.2, SVG Export Plug-In . SVG Version: 6.00 Build 0)  -->
<svg version="1.1" id="Layer_1" xmlns="http://www.w3.org/2000/svg" xmlns:xlink="http://www.w3.org/1999/xlink" x="0px" y="0px"
	 viewBox="0 0 479.52 130" style="enable-background:new 0 0 479.52 130;" xml:space="preserve">
<style type="text/css">
	.st0{fill:#FFFFFF;}
</style>
<g>
	<g>
		<path d="M472.14,50.32c2.19-8.37,0.11-17.41-5.91-24.26c-3.4-3.86-7.65-6.81-12.64-8.79c-4.22-1.68-8.68-2.52-13.25-2.52
			c-0.04,0-0.5,0-0.55,0c-8.49,0.13-16.11,3.63-21.43,9.84c-2.75,3.19-5.34,6.39-7.71,9.53c-1.74,2.31-3.4,4.59-4.94,6.81
			c-4.91-3.29-10.76-5.05-17.03-5.05c-0.46,0-0.92,0.01-1.38,0.03c-1.13-3.83-3.18-7.48-6.15-10.63c-3.16-3.33-7.05-5.96-11.54-7.83
			c-0.24-0.1-0.48-0.2-0.77-0.3c-4.12-1.54-8.33-2.33-12.51-2.33c-0.38,0-0.75,0.01-1.1,0.02c-0.24,0.01-0.47,0.02-0.65,0.03
			c-7.98,0.48-15.17,3.93-20.24,9.72c-0.02,0.03-0.05,0.05-0.07,0.08c-1.48,1.7-3.03,3.6-4.64,5.67
			c-0.04-7.26-3.15-14.13-8.75-19.35c-3.88-3.63-8.69-6.45-14.3-8.4C301.65,0.87,296.52,0,291.21,0l-0.35,0
			c-10.33,0.1-19.15,4.52-24.86,12.48c-1.37,1.93-2.85,4.12-4.39,6.52c-1.45,2.26-2.99,4.73-4.58,7.35
			c-1.52,2.5-3.08,5.11-4.69,7.83c-1.41,2.38-2.83,4.82-4.23,7.26c-2.89-0.48-5.89-0.74-8.96-0.8c-0.15,0-0.3,0-0.45,0
			c-4.55,0-9.13,0.54-13.61,1.59c-3.57,0.84-6.94,2.12-10.1,3.79c0.82-10.26-4.27-21.81-18.72-27.95c-4.36-1.85-8.77-2.79-13.1-2.79
			c-8.66,0-16.77,3.82-22.25,10.48c-1.31,1.59-2.66,3.23-4.04,4.93c-0.42,0.51-0.83,1.03-1.24,1.54c-2.6-0.74-5.31-1.11-8.07-1.11
			c-3.35,0-6.77,0.56-10.14,1.65c-0.76,0.25-1.51,0.51-2.27,0.81c0.12-1.03,0.18-2.07,0.18-3.12c-0.01-7.3-3.12-14.22-8.76-19.48
			c-3.88-3.62-8.69-6.45-14.29-8.4C107.37,0.87,102.23,0,96.92,0l-0.35,0C86.23,0.1,77.42,4.52,71.7,12.49
			c-1.36,1.91-2.84,4.1-4.39,6.52c-1.46,2.27-3,4.74-4.58,7.34c-1.51,2.5-3.08,5.11-4.69,7.84c-1.42,2.39-2.83,4.83-4.22,7.26
			c-2.89-0.48-5.88-0.74-8.95-0.8c-0.15,0-0.31,0-0.46,0c-4.55,0-9.13,0.54-13.61,1.59c-6.15,1.45-11.74,4.15-16.61,8.03
			c-0.05,0.04-0.1,0.08-0.15,0.12C5.11,57.68,0.13,68.05,0,79.59C-0.09,88,1.84,96.1,5.75,103.66c2.77,5.43,6.56,10.33,11.25,14.54
			c5.08,4.56,10.9,7.89,17.37,9.91c4.07,1.26,8.32,1.9,12.64,1.9c2.92,0,5.9-0.3,8.87-0.88c7.76-1.53,15.02-5.32,21.54-11.21
			c0,0,0.28-0.26,0.33-0.3c2.18-2.04,4.23-4.22,6.1-6.51c2.42,1.32,5.01,2.38,7.72,3.15c2.99,0.86,6.07,1.29,9.17,1.29
			c2.24,0,4.49-0.23,6.62-0.66c4.06-0.8,7.94-2.24,11.63-4.3c1.98,0.96,3.98,1.81,5.96,2.54c3.08,1.14,6.45,2.25,10.74,2.25
			c0.89,0,1.82-0.05,2.68-0.15c1.64-0.18,3.27-0.54,4.83-1.06c0.86-0.28,1.77-0.6,2.71-0.95c2,0.91,4.1,1.62,6.27,2.12
			c2.09,0.5,4.2,0.75,6.27,0.75c3.85,0,7.51-0.83,10.91-2.46c2.49,0.88,5.06,1.4,7.7,1.55c0.64,0.05,1.29,0.07,1.92,0.07
			c6.16,0,12.03-2.06,16.97-5.97c0.03-0.02,0.06-0.05,0.09-0.07c1.55-1.24,2.98-2.66,4.55-4.53c2.72,5.03,6.3,9.57,10.69,13.52
			c5.07,4.56,10.91,7.89,17.37,9.91c4.07,1.26,8.32,1.9,12.63,1.9c2.92,0,5.9-0.3,8.87-0.88c7.76-1.53,15.02-5.32,21.52-11.19
			c0,0,0.3-0.28,0.35-0.32c1.93-1.8,3.75-3.72,5.45-5.72c4,2,8.25,3.17,12.61,3.46c0.71,0.05,1.43,0.08,2.13,0.08
			c3.01,0,5.92-0.46,8.67-1.34c2.7,0.84,5.47,1.26,8.25,1.26c3.49,0,6.88-0.66,10.04-1.93c3.5,1.34,7.1,2.02,10.74,2.02
			c0.35,0,0.71-0.01,1.06-0.02c2.93-0.1,5.75-0.67,8.37-1.65c3.09,1.19,6.4,1.81,9.69,1.81c0.78,0,1.58-0.03,2.36-0.1
			c3.98-0.3,7.83-1.48,11.36-3.47c3.93,1.92,8.09,3.05,12.36,3.34c0.71,0.05,1.43,0.08,2.13,0.08c3.01,0,5.93-0.46,8.67-1.33
			c2.7,0.84,5.47,1.26,8.24,1.26c4.32,0,8.48-1,12.24-2.93c0.85,0.38,1.72,0.73,2.61,1.04c3.74,1.35,7.72,2.04,11.83,2.04
			c2.51,0,5.1-0.26,7.72-0.78c7.06-1.41,13.93-4.45,20.41-9.04c2.58-1.8,5.04-3.79,7.32-5.91c1.49-1.39,2.88-2.79,4.16-4.19
			c1.01-0.67,2.03-1.34,3.03-1.98c3.99-2.57,7.5-5.77,10.36-9.47c3.92-5.01,5.93-11.18,5.65-17.39
			C479.19,60.27,476.42,54.5,472.14,50.32z"/>
		<path class="st0" d="M201.77,64.06c-1.21-0.57-2.51-0.86-3.86-0.87c-0.95-2.23-2.77-4.25-5.7-6.33c-0.64-0.45-1.27-0.86-1.9-1.22
			c2-2.18,2.74-2.74,2.87-2.83c1.33-0.97,2.01-1.52,2.54-2.05c0.95-0.95,1.69-2.13,2.22-3.54c0.55-1.51,2.76-9.28-8.15-13.91
			c-2.31-0.98-4.54-1.48-6.63-1.48c-3.75,0-7.12,1.59-9.48,4.46c-1.29,1.56-2.61,3.18-3.98,4.85c-1.41,1.73-2.82,3.53-4.16,5.32
			c-1.38,1.8-2.75,3.63-4.13,5.5c-0.6,0.81-1.19,1.63-1.77,2.46c-0.47-0.7-1.02-1.39-1.67-2.08c-0.09-0.09-0.18-0.18-0.27-0.27
			c-1.71-1.62-3.63-2.84-5.71-3.63c-0.05-0.02-0.09-0.03-0.14-0.05c-1.35-0.48-2.8-0.72-4.29-0.72c-1.61,0-3.31,0.28-5.04,0.84
			c-2.39,0.77-4.81,1.94-7.26,3.5c-2.69,1.74-5.17,3.72-7.41,5.88c-0.33-0.59-0.69-1.16-1.12-1.69c-2.33-2.79-5.63-4.32-9.29-4.32
			c-1.47,0-2.97,0.24-4.53,0.72c-1.68-1.06-3.63-1.62-5.7-1.62c-1.35,0-2.75,0.25-4.2,0.72c0.33-0.46,0.66-0.94,0.99-1.4
			c3.02-4.19,5.69-7.38,7.93-9.47l3.75-3.49c1.99-1.87,3.09-4.31,3.09-6.87c0-1.89-0.61-4.7-3.49-7.39
			c-2.19-2.04-5.03-3.68-8.44-4.87c-3.15-1.1-6.46-1.66-9.82-1.66l-0.28,0c-6.3,0.06-9.74,3.03-11.53,5.53
			c-1.21,1.7-2.54,3.68-3.95,5.87c-1.38,2.15-2.85,4.5-4.34,6.97c-1.49,2.45-3.02,5.02-4.61,7.7c-1.58,2.67-3.18,5.43-4.72,8.15
			c-1.59,2.75-3.14,5.47-4.66,8.17c-0.45,0.79-0.89,1.57-1.32,2.34c-1.88-1.17-4.31-2.11-7.41-2.88c-2.99-0.74-6.23-1.15-9.63-1.21
			c-0.04,0-0.08,0-0.12,0c-3.27,0-6.57,0.39-9.82,1.15c-3.75,0.88-7.12,2.5-10.08,4.86c-5.13,4.19-7.88,9.92-7.95,16.56
			c-0.06,5.69,1.26,11.2,3.92,16.32c1.85,3.63,4.4,6.92,7.58,9.78c3.29,2.96,7.06,5.11,11.2,6.41c2.48,0.77,5.09,1.16,7.74,1.16
			c1.85,0,3.76-0.19,5.67-0.57c4.77-0.94,9.38-3.39,13.69-7.29c0.03-0.03,0.06-0.05,0.08-0.08c2.57-2.4,4.87-5.05,6.84-7.88
			c1.72-2.47,3.23-4.71,4.52-6.7c1.23-1.91,2.71-4.28,4.42-7.06c0.88,4.72,3.52,8.71,7.79,11.61c1.82,1.25,3.88,2.21,6.11,2.85
			c1.5,0.43,3.05,0.65,4.6,0.65c1.14,0,2.29-0.12,3.39-0.34c4.24-0.84,8.27-2.95,11.99-6.26c0.82-0.73,1.58-1.48,2.32-2.24
			c0.56,0.86,1.35,1.72,2.46,2.53c1.29,0.93,2.83,1.83,4.72,2.73c1.69,0.84,3.4,1.58,5.06,2.2c2.29,0.85,3.55,1.22,4.99,1.22
			c0.27,0,0.57-0.02,0.84-0.05c0.5-0.06,0.99-0.16,1.46-0.32c3.24-1.07,6.62-2.44,9.12-4.57c2.35,2.7,5.39,4.55,8.85,5.33
			c0.87,0.21,1.68,0.31,2.5,0.31c1.42,0,2.74-0.31,3.94-0.92c1.44-0.71,3.24-2.14,4.35-4.97c0.11-0.29,0.19-0.41,0.19-0.42
			c0.02-0.04,0.3-0.48,0.41-0.66c1.37,1.69,3.02,3.1,4.93,4.22c1.88,1.15,3.85,1.78,5.87,1.89c0.28,0.02,0.56,0.03,0.84,0.03
			c2.4,0,4.71-0.82,6.72-2.41c0.8-0.64,1.63-1.5,2.68-2.8c0.72-0.89,1.52-1.9,2.37-3c0.95-1.21,1.96-2.5,3.05-3.87
			c1.03-1.29,2.11-2.57,3.2-3.8c2.32-2.59,4.43-4.56,6.28-5.86c2.11-1.47,3.3-3.95,3.12-6.51
			C206.28,69.12,205.65,65.89,201.77,64.06z M45.85,85.92c-0.09,0.04-0.18,0.09-0.27,0.12c0.23-0.59,0.65-1.4,1.39-2.42
			c0.4-0.55,1.22-0.96,2.44-1.23C47.63,84.84,46.38,85.66,45.85,85.92z M146.51,72.7c0.04-0.07,0.24-0.37,0.73-0.87
			c0.73-0.74,1.56-1.44,2.49-2.09c0.12-0.08,0.23-0.16,0.35-0.24c-0.04,0.06-0.08,0.13-0.11,0.2c-0.98,1.8-1.84,3.54-2.63,5.24
			c-0.32-0.58-0.65-1.16-0.98-1.76C146.37,73.09,146.41,72.93,146.51,72.7z"/>
		<path class="st0" d="M462.95,67.52c-0.2-4.24-3.43-7.44-7.52-7.44c-0.42,0-0.83,0.03-1.24,0.1c-1.3-2.49-3.29-4.42-5.79-5.67
			c0.49-0.53,0.96-1.04,1.42-1.53c0.06-0.03,0.13-0.07,0.24-0.12c2.31-1.08,4.02-2.55,5.08-4.36c0.06-0.1,0.12-0.21,0.17-0.31
			c1.91-3.65,1.34-7.93-1.51-11.18c-1.65-1.88-3.78-3.34-6.33-4.35c-2.27-0.9-4.67-1.36-7.15-1.36l-0.3,0
			c-4.71,0.07-7.57,2.27-9.13,4.09c-2.52,2.93-4.89,5.85-7.04,8.7c-2.33,3.08-4.48,6.1-6.39,8.95c-1.99,2.96-3.93,6.02-5.75,9.06
			c-0.49,0.81-0.98,1.64-1.48,2.48c-0.71-1.66-2.03-3.48-4.47-5.11c-2.21-1.47-4.5-2.35-6.81-2.61c-2.52-2.83-6.12-4.42-10.31-4.42
			c-2.83,0-5.8,0.7-8.83,2.09c-2.64,1.21-5.19,2.82-7.58,4.78c-0.19,0.16-0.37,0.32-0.56,0.48c-0.61-1.3-1.48-2.52-2.61-3.66
			c-0.05-0.05-0.1-0.1-0.16-0.15c-1.16-1.1-2.48-2.04-3.94-2.82c0.73-0.75,1.09-1.06,1.22-1.17c1.45-1.1,2.37-1.96,3.07-2.87
			c0.06-0.08,0.12-0.15,0.16-0.21c3.22-3.5,3.11-8.6-0.31-12.24c-1.55-1.63-3.53-2.95-5.88-3.93c-0.08-0.03-0.15-0.06-0.23-0.09
			c-2.26-0.85-4.51-1.27-6.7-1.27c-0.19,0-0.38,0-0.58,0.01c-0.06,0-0.12,0-0.18,0.01c-4.52,0.27-7.25,2.36-8.78,4.1
			c-2.48,2.87-5.25,6.4-8.23,10.5c-2.44,3.35-5.15,7.23-8.01,11.49c-1.66,2.42-3.22,4.81-4.71,7.17c-0.13,0.03-0.25,0.05-0.38,0.08
			c-0.04,0.01-0.08,0.02-0.13,0.04c-0.68-1.71-2.02-3.61-4.55-5.3c-2.21-1.47-4.5-2.35-6.81-2.61c-2.52-2.83-6.12-4.42-10.31-4.42
			c-2.62,0-5.36,0.61-8.15,1.8c0.93-1.33,1.86-2.65,2.79-3.94c3.02-4.18,5.69-7.37,7.93-9.47l3.74-3.48c2-1.87,3.1-4.31,3.09-6.87
			c0-1.89-0.61-4.71-3.49-7.39c-2.19-2.04-5.03-3.68-8.44-4.87c-3.15-1.1-6.46-1.66-9.82-1.66l-0.28,0
			c-6.3,0.06-9.74,3.03-11.53,5.53c-1.22,1.71-2.55,3.69-3.95,5.87c-1.37,2.13-2.83,4.47-4.34,6.97c-1.49,2.45-3.02,5.02-4.61,7.69
			c-1.58,2.66-3.18,5.42-4.73,8.15c-1.58,2.75-3.14,5.47-4.66,8.17c-0.45,0.79-0.89,1.57-1.32,2.34c-1.88-1.17-4.31-2.11-7.41-2.88
			c-2.99-0.74-6.23-1.15-9.63-1.21c-0.04,0-0.08,0-0.12,0c-3.27,0-6.57,0.39-9.82,1.15c-3.75,0.88-7.12,2.5-10.08,4.86
			c-5.13,4.19-7.88,9.92-7.95,16.56c-0.06,5.69,1.26,11.2,3.92,16.32c1.85,3.63,4.4,6.92,7.58,9.78c3.29,2.96,7.06,5.11,11.2,6.41
			c2.48,0.77,5.09,1.16,7.74,1.16c1.85,0,3.76-0.19,5.67-0.57c4.77-0.94,9.38-3.39,13.69-7.29c0.03-0.03,0.06-0.05,0.08-0.08
			c2.57-2.4,4.87-5.05,6.84-7.88c1.72-2.47,3.23-4.71,4.52-6.7c1.01-1.57,2.19-3.45,3.53-5.61c0.96,4.9,3.95,8.9,8.59,11.4
			c2.24,1.23,4.62,1.95,7.05,2.11c0.33,0.02,0.65,0.03,0.97,0.03c3.16,0,6.01-1.18,8.03-3.34c0.08-0.09,0.16-0.18,0.25-0.27
			c1.47,1.31,3.13,2.28,4.97,2.91c1.22,0.42,2.45,0.63,3.67,0.63c2.4,0,4.67-0.81,6.57-2.33c0.65-0.52,1.48-1.28,2.96-3.03
			c1.3,1.54,2.86,2.8,4.65,3.73c2.2,1.15,4.41,1.74,6.6,1.74c0.16,0,0.32,0,0.47-0.01c3.84-0.11,6.87-2.24,8.08-5.43
			c1.66,1.71,3.36,3.07,5.14,4.1c0.27,0.16,0.55,0.29,0.84,0.41c1.44,0.7,3.01,1.07,4.59,1.07c0.34,0,0.68-0.02,1.01-0.05
			c2.18-0.14,4.28-0.98,6.13-2.44c0.68-0.54,1.43-1.27,2.51-2.44c0.82-0.89,1.73-1.89,2.67-2.95c0.33-0.36,0.66-0.73,0.99-1.1
			c1.52,2.75,3.84,5.03,6.88,6.67c2.24,1.24,4.62,1.95,7.06,2.11c0.33,0.02,0.65,0.03,0.96,0.03c3.16,0,6.01-1.18,8.02-3.33
			c0.08-0.09,0.17-0.18,0.25-0.28c1.47,1.31,3.13,2.28,4.97,2.91c1.22,0.42,2.45,0.63,3.67,0.63c2.4,0,4.67-0.81,6.57-2.33
			c0.91-0.73,2.17-1.93,5.12-5.7c0.03-0.03,0.05-0.06,0.08-0.1c0.15,0.26,0.31,0.52,0.47,0.77c1.88,3,4.71,5.23,8.18,6.45
			c1.95,0.71,4.05,1.07,6.26,1.07c1.43,0,2.94-0.15,4.47-0.46c4.79-0.96,9.56-3.11,14.13-6.35c1.97-1.37,3.83-2.87,5.54-4.46
			c1.64-1.53,3.12-3.06,4.38-4.55c0.08-0.09,0.13-0.13,0.12-0.13c0,0,0,0,0,0c0.03-0.02,0.06-0.04,0.09-0.06
			c1.64-1.11,3.31-2.21,4.95-3.27c2.41-1.55,4.52-3.49,6.28-5.75C462.71,71.49,463.02,69.11,462.95,67.52z M240.13,85.92
			c-0.09,0.04-0.18,0.09-0.27,0.12c0.23-0.59,0.65-1.4,1.39-2.42c0.4-0.55,1.22-0.96,2.44-1.23
			C241.92,84.84,240.67,85.66,240.13,85.92z"/>
	</g>
	<path d="M29.07,68.79c2.07-1.65,4.46-2.79,7.17-3.43c2.72-0.64,5.44-0.96,8.17-0.96c2.88,0.05,5.55,0.38,8.02,1
		c2.47,0.61,4.32,1.33,5.55,2.14c1.84,1.2,2.27,2.47,1.27,3.78c-1,1.32-2.11,2.1-3.34,2.34c-2.31,0.47-4.98,1.03-8.02,1.7
		c-3.04,0.66-5.29,2.02-6.77,4.06c-2.31,3.2-3.28,6.1-2.91,8.7c0.37,2.61,1.52,4.34,3.47,5.2c1.92,0.81,4.34,0.51,7.28-0.9
		c2.94-1.41,5.82-4.58,8.65-9.5c0.96-1.67,2.05-3.59,3.26-5.75c1.22-2.16,2.53-4.49,3.93-6.97c1.4-2.46,2.86-5.03,4.37-7.71
		c1.51-2.68,3.05-5.38,4.63-8.11c1.55-2.73,3.11-5.42,4.68-8.08c1.57-2.66,3.1-5.2,4.57-7.63c1.48-2.43,2.89-4.7,4.24-6.8
		c1.35-2.1,2.61-3.96,3.76-5.59c1.18-1.65,3.09-2.48,5.73-2.51c2.64-0.02,5.2,0.39,7.67,1.25c2.47,0.86,4.44,1.97,5.9,3.34
		c1.46,1.36,1.59,2.61,0.39,3.74l-3.72,3.47c-2.61,2.43-5.56,5.94-8.87,10.53c-3.31,4.59-6.59,9.42-9.86,14.51
		c-3.32,5.11-6.45,10.08-9.38,14.9c-2.94,4.82-5.33,8.67-7.17,11.54c-1.23,1.89-2.69,4.05-4.37,6.47c-1.68,2.42-3.63,4.66-5.84,6.73
		c-3.34,3.02-6.76,4.88-10.25,5.57c-3.49,0.69-6.79,0.55-9.88-0.41c-3.15-0.98-5.99-2.61-8.52-4.89c-2.53-2.27-4.52-4.84-5.97-7.69
		c-2.14-4.13-3.18-8.46-3.13-12.98C23.81,75.33,25.58,71.64,29.07,68.79z"/>
	<path d="M89.63,75.98c0.59-2.41,1.73-4.81,3.43-7.19c1.7-2.38,3.56-4.46,5.61-6.23c2.02-1.75,4-3.01,5.96-3.8
		c1.95-0.79,3.48-0.77,4.59,0.04c0.29,0.25,0.66,0.48,1.11,0.7c0.44,0.22,0.9,0.44,1.36,0.66c0.54,0.27,1.04,0.28,1.51,0.04
		c3.59-1.67,6.26-1.46,8,0.63c0.79,0.96,1.15,2.56,1.09,4.79c-0.06,2.24-0.42,4.44-1.09,6.6c-0.25,0.79-0.06,1,0.55,0.63
		c0.96-0.52,1.83-1.09,2.62-1.71c0.79-0.63,1.6-1.28,2.43-1.97c0.79-0.64,1.13-0.48,1.03,0.46c-0.1,0.95-0.59,2.01-1.47,3.19
		c-0.76,0.98-1.83,2.05-3.21,3.19c-1.38,1.14-2.9,1.97-4.57,2.49c-0.2,0.07-0.43,0.32-0.7,0.74c-1.62,2.73-3.81,5.32-6.56,7.78
		c-2.75,2.46-5.62,3.98-8.59,4.57c-1.57,0.32-3.11,0.26-4.61-0.17c-1.5-0.43-2.84-1.05-4.02-1.86C89.64,86.52,88.16,82,89.63,75.98z
		 M110.1,79.81c-2.63,0.47-4.74,0.36-6.34-0.33c-1.6-0.69-2.4-2.14-2.4-4.35c-0.07-0.44-0.22-0.5-0.44-0.18
		c-2.29,3.17-3.34,5.85-3.17,8.04c0.15,1.62,0.85,2.68,2.12,3.17c1.27,0.49,2.6,0.37,4-0.37c2.41-1.25,4.57-3.11,6.49-5.57
		C110.6,79.87,110.52,79.74,110.1,79.81z M115.67,68.9c0.15-1.72-0.28-2.56-1.27-2.53c-1,0.04-2.06,0.5-3.19,1.38
		c-1.03,0.84-2.28,2.26-3.74,4.28c-1.46,2.02-1.57,3.11-0.31,3.28c0.81,0.15,1.75,0.22,2.8,0.2c1.06-0.01,2.25-0.21,3.58-0.61
		c0.07-0.02,0.23-0.32,0.46-0.89c0.23-0.57,0.39-0.91,0.46-1.03C115.16,71.07,115.57,69.71,115.67,68.9z"/>
	<path d="M135.7,91.61c-0.22,0.02-1.06-0.23-2.53-0.77c-1.46-0.54-2.93-1.18-4.41-1.92c-1.5-0.71-2.72-1.41-3.65-2.08
		c-0.93-0.68-1-1.12-0.18-1.35c1.82-0.54,3.24-1.02,4.28-1.44c1.03-0.37,1.95-0.79,2.77-1.25c1.67-0.89,2.48-1.82,2.43-2.8
		c-0.05-0.98-0.44-2.05-1.18-3.21c-0.74-1.11-1.59-2.33-2.56-3.67c-0.97-1.34-1.53-2.82-1.68-4.44c-0.07-0.93,0.59-2.16,1.99-3.69
		c2.38-2.63,5.11-4.94,8.19-6.93c1.89-1.2,3.75-2.1,5.57-2.69c1.82-0.59,3.39-0.65,4.72-0.18c1.18,0.44,2.27,1.14,3.28,2.1
		c0.86,0.91,1.35,1.7,1.48,2.36c0.12,0.71-0.25,1-1.11,0.85c-0.74-0.1-1.82,0.18-3.25,0.85c-1.43,0.66-2.86,1.51-4.31,2.54
		c-1.25,0.88-2.4,1.85-3.43,2.89c-1.03,1.05-1.76,2.03-2.18,2.97c-1.11,2.53-1.09,4.81,0.06,6.84s2.17,3.89,3.08,5.59
		c0.88,1.72,1.03,3.34,0.42,4.87C142.9,88.56,140.3,90.09,135.7,91.61z"/>
	<path d="M179.23,40.87c1.72-2.09,4.3-2.4,7.74-0.94c3.44,1.46,4.84,3.07,4.2,4.81c-0.15,0.39-0.33,0.7-0.55,0.92
		s-0.79,0.66-1.7,1.33c-1.4,1.01-3.8,3.5-7.19,7.49c-3.29,3.91-6.6,8.2-9.92,12.87c-2.38,3.29-4.45,6.38-6.2,9.26
		c-0.22,0.34-0.26,0.53-0.11,0.57c0.15,0.04,0.37-0.12,0.66-0.46c0.76-0.89,1.55-1.79,2.38-2.73c0.82-0.93,1.66-1.88,2.53-2.84
		c1.97-2.14,3.64-3.9,5.02-5.27c1.57-1.57,3-2.86,4.28-3.87c1.33-0.96,2.27-1.41,2.84-1.36c1.45,0.15,3.06,0.85,4.83,2.1
		c1.77,1.25,2.85,2.35,3.24,3.28c0.2,0.57,0.01,1.08-0.55,1.55c-0.74,0.64-1.68,1.51-2.84,2.62c-1.08,1.08-2.23,2.32-3.43,3.72
		c-1.13,1.35-2.13,2.73-3.01,4.13c-0.87,1.4-1.4,2.68-1.57,3.83c-0.12,0.69,0.02,0.85,0.44,0.48c1.06-0.89,2.29-1.92,3.69-3.1
		c1.4-1.18,2.88-2.36,4.43-3.54c1.52-1.18,3.05-2.24,4.57-3.19c1.52-0.95,2.93-1.63,4.2-2.05c0.54-0.15,1.03-0.12,1.48,0.09
		c0.44,0.21,0.59,0.36,0.44,0.46c-2.31,1.62-4.82,3.95-7.52,6.97c-1.2,1.35-2.36,2.72-3.47,4.11c-1.11,1.39-2.14,2.7-3.1,3.93
		c-0.84,1.08-1.6,2.05-2.29,2.89c-0.69,0.85-1.22,1.42-1.59,1.71c-0.81,0.64-1.67,0.91-2.58,0.81c-0.86-0.02-1.75-0.32-2.65-0.88
		c-1.67-0.96-3-2.27-3.98-3.95c-0.86-1.45-1.3-2.93-1.31-4.43c-0.01-1.5,0.19-2.88,0.61-4.13c0.2-0.66,0.01-0.74-0.55-0.22
		c-2.09,1.77-4.13,3.84-6.12,6.2c-1.23,1.43-2.48,3.2-3.76,5.31c-0.29,0.47-0.57,1.01-0.81,1.64c-0.25,0.63-0.54,1.01-0.89,1.16
		c-0.34,0.2-0.86,0.21-1.55,0.04c-2.11-0.47-3.87-1.56-5.27-3.28c-1.2-1.55-1.55-3.11-1.03-4.68c1.13-3.32,2.8-7.02,5.01-11.1
		c1.84-3.39,4.18-7.18,7.01-11.36c1.25-1.87,2.56-3.72,3.91-5.55c1.35-1.83,2.7-3.63,4.06-5.4c1.33-1.77,2.67-3.48,4.02-5.14
		C176.63,44.02,177.95,42.42,179.23,40.87z"/>
	<path d="M223.36,68.79c2.07-1.65,4.46-2.79,7.17-3.43c2.72-0.64,5.44-0.96,8.17-0.96c2.88,0.05,5.55,0.38,8.02,1
		c2.47,0.61,4.32,1.33,5.55,2.14c1.84,1.2,2.27,2.47,1.27,3.78c-1,1.32-2.11,2.1-3.34,2.34c-2.31,0.47-4.98,1.03-8.02,1.7
		c-3.04,0.66-5.29,2.02-6.77,4.06c-2.31,3.2-3.28,6.1-2.91,8.7c0.37,2.61,1.52,4.34,3.47,5.2c1.92,0.81,4.34,0.51,7.28-0.9
		c2.94-1.41,5.82-4.58,8.65-9.5c0.96-1.67,2.05-3.59,3.26-5.75c1.22-2.16,2.53-4.49,3.93-6.97c1.4-2.46,2.86-5.03,4.37-7.71
		c1.51-2.68,3.05-5.38,4.63-8.11c1.55-2.73,3.11-5.42,4.68-8.08c1.57-2.66,3.1-5.2,4.57-7.63c1.48-2.43,2.89-4.7,4.24-6.8
		c1.35-2.1,2.61-3.96,3.76-5.59c1.18-1.65,3.09-2.48,5.73-2.51c2.64-0.02,5.2,0.39,7.67,1.25c2.47,0.86,4.44,1.97,5.9,3.34
		c1.46,1.36,1.59,2.61,0.39,3.74l-3.72,3.47c-2.61,2.43-5.56,5.94-8.87,10.53c-3.31,4.59-6.6,9.42-9.86,14.51
		c-3.32,5.11-6.45,10.08-9.38,14.9c-2.94,4.82-5.33,8.67-7.17,11.54c-1.23,1.89-2.69,4.05-4.37,6.47c-1.68,2.42-3.63,4.66-5.84,6.73
		c-3.34,3.02-6.76,4.88-10.25,5.57c-3.49,0.69-6.79,0.55-9.88-0.41c-3.15-0.98-5.99-2.61-8.52-4.89c-2.53-2.27-4.52-4.84-5.97-7.69
		c-2.14-4.13-3.18-8.46-3.13-12.98C218.1,75.33,219.87,71.64,223.36,68.79z"/>
	<path d="M304.38,88.96c-1.97-2.11-2.69-4.68-2.18-7.71c0.12-0.89-0.11-0.91-0.7-0.07c-1.13,1.57-2.1,2.99-2.91,4.24
		c-0.81,1.23-1.53,2.31-2.16,3.25c-0.63,0.93-1.11,1.59-1.46,1.95c-0.74,0.79-1.81,1.13-3.23,1.03c-1.41-0.1-2.78-0.52-4.11-1.25
		c-3.12-1.67-4.83-4.19-5.13-7.56c-0.3-3.37,0.43-6.6,2.18-9.7c1.82-3.1,4.19-5.85,7.12-8.26c1.92-1.57,3.92-2.84,6.01-3.8
		c2.09-0.96,4.03-1.44,5.83-1.44c3.24,0,5.38,1.56,6.42,4.68c0.02,0.1,0.09,0.12,0.18,0.07c2.07-0.81,4.24-0.45,6.53,1.07
		c2.29,1.52,2.63,3.12,1.03,4.79c-0.59,0.59-1.27,1.35-2.05,2.29c-0.77,0.93-1.52,1.94-2.23,3.02c-1.72,2.58-2.65,4.81-2.8,6.67
		c0,0.22,0.07,0.27,0.22,0.15c0.86-0.69,1.97-1.54,3.32-2.54c1.35-1.01,2.8-2.03,4.35-3.06c2.07-1.4,3.75-2.52,5.05-3.36
		c1.3-0.84,2.56-1.43,3.76-1.77c0.52-0.15,0.98-0.15,1.38-0.02c0.41,0.14,0.52,0.28,0.35,0.42c-0.49,0.37-1.64,1.36-3.43,2.99
		c-1.79,1.62-3.58,3.36-5.35,5.2c-1.6,1.62-3.34,3.65-5.24,6.07c-1.89,2.42-3.21,3.93-3.95,4.52c-0.98,0.79-2.12,0.96-3.41,0.52
		C306.51,90.91,305.37,90.11,304.38,88.96z M306.26,69.45c0.39-2.73-0.32-3.93-2.14-3.61c-2.43,0.44-4.85,2.49-7.25,6.14
		c-2.4,3.65-3.96,6.47-4.7,8.46c-0.52,1.3-0.75,2.23-0.7,2.78c0.05,0.55,0.36,0.53,0.92-0.06c2.31-2.41,4.6-4.68,6.86-6.82
		c1.16-1.13,2.31-2.24,3.47-3.34c1.16-1.09,2.26-2.13,3.32-3.12C306.14,69.79,306.21,69.65,306.26,69.45z"/>
	<path d="M352.22,40.21c0.86-0.98,2.11-1.52,3.76-1.62c1.43-0.05,2.93,0.22,4.5,0.81c1.43,0.59,2.56,1.33,3.41,2.23
		c0.85,0.9,0.92,1.71,0.2,2.45c-0.1,0.1-0.28,0.33-0.55,0.68c-0.27,0.36-0.85,0.87-1.73,1.53c-1.11,0.86-2.91,2.74-5.42,5.64
		c-2.21,2.58-4.85,5.84-7.93,9.77c-0.81,1.03-1.61,2.09-2.4,3.17c-0.79,1.08-1.56,2.15-2.32,3.21c-0.15,0.2-0.18,0.35-0.11,0.46
		c0.07,0.11,0.2,0.09,0.37-0.06c1.43-0.98,2.85-2.01,4.28-3.08s2.77-2.08,4.02-3.04c2.85-2.14,4.71-3.36,5.57-3.65
		c0.81-0.25,1.81-0.1,3.01,0.44c1.19,0.54,2.23,1.23,3.11,2.07c0.84,0.84,1.33,1.68,1.47,2.53c0.15,0.85-0.43,1.46-1.73,1.83
		c-0.27,0.1-0.9,0.38-1.88,0.85c-0.52,0.27-1.13,0.58-1.84,0.94c-0.71,0.36-1.48,0.74-2.29,1.16c-0.81,0.44-1.66,0.92-2.54,1.42
		c-0.89,0.5-1.77,1.01-2.65,1.53c-2.24,1.33-3.97,2.43-5.2,3.32c-0.29,0.25-0.42,0.55-0.37,0.92c0.17,1.5,0.47,3.04,0.89,4.63
		s0.97,2.65,1.66,3.19c0.32,0.3,0.74,0.23,1.25-0.18c0.54-0.47,1.64-1.33,3.28-2.6c1.65-1.27,3.48-2.62,5.49-4.07
		c1.99-1.4,4-2.75,6.01-4.04s3.69-2.19,5.02-2.71c0.74-0.27,1.44-0.37,2.12-0.29c0.67,0.07,0.79,0.28,0.35,0.63
		c-1.89,1.4-3.79,2.91-5.68,4.54c-1.97,1.72-3.86,3.5-5.68,5.35c-0.81,0.81-1.72,1.78-2.71,2.89c-1,1.12-1.97,2.21-2.93,3.26
		c-0.96,1.08-1.83,2.05-2.62,2.89c-0.79,0.85-1.36,1.42-1.73,1.71c-0.71,0.57-1.45,0.86-2.21,0.89c-0.76,0.1-1.49-0.06-2.18-0.48
		h-0.04h-0.04c-1.99-1.16-3.98-3.06-5.97-5.72c-0.88-1.11-1.7-2.21-2.43-3.32c-0.74-1.11-1.36-2.1-1.88-2.99
		c-0.25-0.37-0.49-0.34-0.74,0.07c-1.57,2.63-2.7,4.65-3.38,6.07c-0.67,1.41-1,3.04-0.98,4.89c0,0.88-0.57,1.34-1.7,1.36
		c-1.08,0.05-2.25-0.26-3.5-0.92c-1.2-0.61-2.21-1.5-3-2.65c-0.8-1.16-0.88-2.47-0.24-3.95c0.76-1.75,1.63-3.55,2.6-5.4
		c0.97-1.86,2.01-3.74,3.11-5.66c2.19-3.71,4.65-7.56,7.38-11.54c2.88-4.28,5.51-8.05,7.89-11.32
		C347.25,46.28,349.86,42.94,352.22,40.21z"/>
	<path d="M389.41,88.96c-1.97-2.11-2.69-4.68-2.18-7.71c0.12-0.89-0.11-0.91-0.7-0.07c-1.13,1.57-2.1,2.99-2.91,4.24
		c-0.81,1.23-1.53,2.31-2.16,3.25c-0.62,0.93-1.11,1.59-1.46,1.95c-0.74,0.79-1.81,1.13-3.23,1.03c-1.41-0.1-2.79-0.52-4.11-1.25
		c-3.12-1.67-4.83-4.19-5.13-7.56c-0.3-3.37,0.43-6.6,2.18-9.7c1.82-3.1,4.19-5.85,7.12-8.26c1.92-1.57,3.92-2.84,6.01-3.8
		s4.03-1.44,5.83-1.44c3.24,0,5.38,1.56,6.42,4.68c0.02,0.1,0.09,0.12,0.18,0.07c2.07-0.81,4.24-0.45,6.53,1.07
		c2.29,1.52,2.63,3.12,1.03,4.79c-0.59,0.59-1.27,1.35-2.05,2.29c-0.77,0.93-1.52,1.94-2.23,3.02c-1.72,2.58-2.65,4.81-2.8,6.67
		c0,0.22,0.07,0.27,0.22,0.15c0.86-0.69,1.97-1.54,3.32-2.54c1.35-1.01,2.8-2.03,4.35-3.06c2.07-1.4,3.75-2.52,5.05-3.36
		c1.3-0.84,2.56-1.43,3.76-1.77c0.52-0.15,0.98-0.15,1.38-0.02c0.41,0.14,0.52,0.28,0.35,0.42c-0.49,0.37-1.64,1.36-3.43,2.99
		c-1.79,1.62-3.58,3.36-5.35,5.2c-1.6,1.62-3.34,3.65-5.24,6.07c-1.89,2.42-3.21,3.93-3.95,4.52c-0.98,0.79-2.12,0.96-3.41,0.52
		C391.53,90.91,390.39,90.11,389.41,88.96z M391.29,69.45c0.39-2.73-0.32-3.93-2.14-3.61c-2.43,0.44-4.85,2.49-7.25,6.14
		c-2.39,3.65-3.96,6.47-4.7,8.46c-0.52,1.3-0.75,2.23-0.7,2.78c0.05,0.55,0.36,0.53,0.92-0.06c2.31-2.41,4.6-4.68,6.86-6.82
		c1.16-1.13,2.31-2.24,3.47-3.34c1.16-1.09,2.26-2.13,3.32-3.12C391.16,69.79,391.24,69.65,391.29,69.45z"/>
	<path d="M436.36,40.1c0.88-1.03,2.15-1.56,3.78-1.59c1.63-0.02,3.2,0.26,4.68,0.85c1.49,0.59,2.68,1.4,3.58,2.42
		c0.9,1.02,1.07,2.05,0.53,3.08c-0.32,0.54-0.97,1.04-1.93,1.49c-0.97,0.46-1.7,0.94-2.2,1.46c-2.34,2.51-5.01,5.45-8.04,8.83
		c-3.02,3.38-4.57,5.29-4.65,5.73c-0.07,0.34,0.04,0.44,0.33,0.29c4.33-2.16,7.96-2.94,10.92-2.32c2.21,0.47,3.74,1.63,4.59,3.48
		c0.85,1.86,0.98,4.01,0.39,6.47c-0.15,0.57,0.01,0.75,0.48,0.55c1.06-0.47,2.35-1.14,3.87-2.03s2.36-1.38,2.51-1.48
		c0.34-0.17,0.53,0,0.55,0.52c0.02,0.52-0.18,1.06-0.63,1.62c-1.28,1.65-2.78,3.02-4.5,4.13c-1.72,1.11-3.42,2.23-5.09,3.36
		c-0.57,0.37-1.11,0.85-1.62,1.44c-1.11,1.3-2.39,2.64-3.85,4c-1.46,1.36-3.04,2.64-4.74,3.82c-3.81,2.7-7.62,4.44-11.43,5.2
		c-2.61,0.52-4.9,0.41-6.9-0.33c-1.99-0.69-3.5-1.87-4.54-3.54c-2.34-3.56-2.19-7.88,0.44-12.94c1.65-3.1,3.31-6.02,4.98-8.78
		c1.79-3,3.65-5.92,5.57-8.78c1.84-2.75,3.9-5.63,6.16-8.63C431.68,45.7,433.93,42.92,436.36,40.1z M430.31,79.22
		c-0.98,0.1-1.89,0.05-2.73-0.15c-2.31-0.49-3.5-1.87-3.58-4.13c0-0.25-0.13-0.27-0.41-0.07c-0.32,0.3-0.86,1.25-1.62,2.88
		c-0.76,1.62-1.29,3.2-1.59,4.72c-0.3,1.38-0.25,2.44,0.13,3.19c0.38,0.75,1.42,0.72,3.11-0.09c1.6-0.79,2.94-1.68,4.02-2.67
		c1.08-1,2.07-2.1,2.95-3.3C430.81,79.29,430.71,79.17,430.31,79.22z M435.26,72.58c0.74-1.55,1.26-3.05,1.57-4.52
		c0.31-1.46-0.08-2.14-1.16-2.05c-0.66,0.07-1.39,0.44-2.2,1.11c-0.8,0.66-1.53,1.4-2.19,2.21c-0.93,1.18-1.61,2.3-2.03,3.36
		c-0.42,1.06-0.28,1.56,0.41,1.51c0.59,0,1.25-0.02,1.97-0.07c0.73-0.05,1.54-0.25,2.45-0.59C434.64,73.32,435.03,73,435.26,72.58z"
		/>
</g>
</svg>
